<svg viewBox="0 0 16 16" xmlns="http://www.w3.org/2000/svg">
    <g fill="none" fill-rule="evenodd">
        <circle stroke="#000" cx="8" cy="8" r="7.5"/>
        <path d="M1.25 7.49l1.229 1.942L3.752 7.49h-.88c0-1.683 1.619-4.595 5.016-4.74 3.787-.163 5.384 3.32 5.367 5.404-.016 2.085-1.805 5.14-5.367 5.14-1.143 0-2.365-.533-3.665-1.599-.178-.178-.355-.178-.532 0-.178.18-.178.358 0 .536 1.274 1.134 2.673 1.723 4.197 1.767 3.787.109 6.183-3.642 6.11-5.844-.072-2.201-1.79-6.217-6.11-6.153-3.399.05-5.794 3.265-5.802 5.489H1.25z"
              fill="#000"/>
        <path d="M3.798 8.298h3.414c0-.254.128-.477.384-.667-.897-.064-1.362-.127-1.394-.19 0-.032.032-.048.096-.048h1.635c.064-.762.128-1.143.192-1.143s.128.381.192 1.143h1.635c.064 0 .096.016.096.047-.032.064-.497.127-1.394.191.256.19.384.413.384.667h3.414c.032 0 .048.015.048.047 0 .064-.016.095-.048.095l-3.51.381c-.256.286-.529.429-.817.429-.288 0-.56-.143-.817-.429l-3.51-.38c-.032 0-.048-.032-.048-.096 0-.032.016-.047.048-.047z"
              fill="#000"/>
    </g>
</svg>
